<svg width="209" height="134" viewBox="0 0 209 134" fill="none" xmlns="http://www.w3.org/2000/svg">
<rect width="208" height="134" rx="24" fill="#006FCF"/>
<path fill-rule="evenodd" clip-rule="evenodd" d="M208.079 24.2613H190.862L181.863 50.086L172.473 24.2613H154.865V64.4722L136.866 24.2613H122.39L104.391 65.3451H116.911L120.433 57.1288H139.214L142.736 65.3451H166.212V36.7817L176.777 65.3451H186.558L197.123 36.7817V65.3451H208.079V71.6053H193.601L181.863 84.5176L169.734 71.6053H120.042V112.689H169.343L181.472 99.386L193.601 112.689H208.079V117.775H190.862L181.472 107.602L172.081 117.775H113.782V70.8226H95L118.477 18H141.17L149.387 35.9991V18H177.559L182.254 31.695L186.95 18H208.079V24.2613ZM208.079 80.6043L197.515 91.9513L208.079 103.298V112.689L188.906 91.9513L208.079 71.6053V80.6043ZM154.865 112.689V102.907H131.389V96.6472H154.474V87.2564H131.389V80.9962H154.865V71.6053L174.429 91.9513L154.865 112.689ZM123.954 48.1287L129.433 34.8256L134.91 48.1287H123.954Z" fill="white"/>
</svg>
