<svg width="208" height="134" viewBox="0 0 208 134" fill="none" xmlns="http://www.w3.org/2000/svg">
<rect width="208" height="134" rx="24" fill="white"/>
<path d="M72.7282 67.3427C72.7282 74.749 78.545 80.4904 86.0266 80.4904C88.1433 80.4904 89.9526 80.0732 92.1873 79.023V73.2388C90.2233 75.2028 88.4832 75.9966 86.2546 75.9966C81.3048 75.9966 77.7919 72.4084 77.7919 67.306C77.7919 62.4703 81.4188 58.6541 86.0266 58.6541C88.3712 58.6541 90.146 59.4886 92.1873 61.4872V55.7051C90.032 54.6121 88.2573 54.1583 86.1426 54.1583C78.6976 54.1583 72.7282 60.0178 72.7282 67.3427Z" fill="#251F1F"/>
<path d="M60.1156 61.2247C60.1156 62.5842 60.9826 63.3047 63.9317 64.3956C69.5226 66.441 71.1793 68.2524 71.1793 72.2558C71.1793 77.1323 67.5952 80.5271 62.4887 80.5271C58.75 80.5271 56.0308 79.0556 53.7656 75.732L56.9406 72.675C58.0722 74.8629 59.9609 76.0353 62.3035 76.0353C64.4975 76.0353 66.1196 74.5231 66.1196 72.4817C66.1196 71.4234 65.6271 70.5136 64.6461 69.8745C64.1515 69.5713 63.1726 69.1174 61.2493 68.4397C56.6333 66.7789 55.0499 65.0021 55.0499 61.53C55.0499 57.4065 58.4508 54.3109 62.908 54.3109C65.6698 54.3109 68.1976 55.2553 70.3123 57.1053L67.7397 60.4716C66.4595 59.0368 65.2506 58.4303 63.7771 58.4303C61.6583 58.4303 60.1156 59.6372 60.1156 61.2247Z" fill="#251F1F"/>
<path fill-rule="evenodd" clip-rule="evenodd" d="M31.2149 54.7282H23.9999V79.9226H31.1763C34.9903 79.9226 37.7481 79.0231 40.166 77.0143C43.0398 74.635 44.7392 71.0489 44.7392 67.3427C44.7392 59.9079 39.183 54.7282 31.2149 54.7282ZM36.9544 73.6561C35.4096 75.0482 33.4049 75.6567 30.2299 75.6567H28.911V58.9981H30.2299C33.4049 58.9981 35.3302 59.5639 36.9544 61.0354C38.6559 62.5476 39.6755 64.8923 39.6755 67.3061C39.6755 69.724 38.6559 72.1439 36.9544 73.6561Z" fill="#251F1F"/>
<path d="M51.9156 54.7282H47.0005V79.9226H51.9156V54.7282Z" fill="#251F1F"/>
<path d="M124.434 54.7282L131.154 71.6493L137.96 54.7282H143.287L132.402 80.5699H129.758L119.067 54.7282H124.434Z" fill="#251F1F"/>
<path d="M145.509 79.9226H159.447V75.6567H150.42V68.8569H159.113V64.589H150.42V58.9981H159.447V54.7282H145.509V79.9226Z" fill="#251F1F"/>
<path fill-rule="evenodd" clip-rule="evenodd" d="M169.987 54.7282C175.655 54.7282 178.908 57.4493 178.908 62.165C178.908 66.0239 176.866 68.5557 173.164 69.3088L181.096 79.9226H175.053L168.251 69.8013H167.608V79.9226H162.701V54.7282H169.987ZM167.608 66.3271H169.047C172.185 66.3271 173.848 64.9635 173.848 62.4316C173.848 59.9791 172.185 58.6949 169.122 58.6949H167.608V66.3271Z" fill="#251F1F"/>
<path fill-rule="evenodd" clip-rule="evenodd" d="M182.824 56.0491C182.824 55.6054 182.516 55.3632 181.981 55.3632H181.269V57.5857H181.798V56.7248L182.419 57.5857H183.068L182.337 56.6698C182.649 56.5843 182.824 56.3564 182.824 56.0491ZM181.887 56.3523H181.798V55.7702H181.893C182.156 55.7702 182.292 55.8659 182.292 56.0572C182.292 56.2526 182.154 56.3523 181.887 56.3523Z" fill="#251F1F"/>
<path fill-rule="evenodd" clip-rule="evenodd" d="M180.151 56.4703C180.151 55.3936 181.01 54.5327 182.087 54.5327C183.137 54.5327 184 55.4099 184 56.4703C184 57.5368 183.137 58.4078 182.087 58.4078C181.018 58.4078 180.151 57.5449 180.151 56.4703ZM180.536 56.4723C180.536 57.3556 181.23 58.0619 182.079 58.0619C182.925 58.0619 183.613 57.3475 183.613 56.4723C183.613 55.6053 182.925 54.8807 182.079 54.8807C181.224 54.8807 180.536 55.589 180.536 56.4723Z" fill="#251F1F"/>
<g filter="url(#filter0_i_1302_8251)">
<path d="M107.083 80.688C99.7194 80.688 93.7481 74.7166 93.7481 67.353V67.335C93.7481 63.6713 95.2316 60.3378 97.6311 57.9383C97.6311 57.9197 97.6497 57.9197 97.6497 57.9016C97.6678 57.9016 97.6678 57.8831 97.6863 57.8831C100.086 55.4836 103.42 54 107.083 54H107.102C114.465 54 120.437 59.9714 120.437 67.335V67.353C120.437 71.0168 118.953 74.3322 116.553 76.7502C116.553 76.7683 116.535 76.7683 116.535 76.7869C116.516 76.7869 116.516 76.8049 116.498 76.8049C114.08 79.2044 110.765 80.688 107.102 80.688H107.083Z" fill="url(#paint0_linear_1302_8251)"/>
</g>
<defs>
<filter id="filter0_i_1302_8251" x="93.7481" y="54" width="27.6654" height="28.1534" filterUnits="userSpaceOnUse" color-interpolation-filters="sRGB">
<feFlood flood-opacity="0" result="BackgroundImageFix"/>
<feBlend mode="normal" in="SourceGraphic" in2="BackgroundImageFix" result="shape"/>
<feColorMatrix in="SourceAlpha" type="matrix" values="0 0 0 0 0 0 0 0 0 0 0 0 0 0 0 0 0 0 127 0" result="hardAlpha"/>
<feOffset dx="0.976924" dy="1.46539"/>
<feGaussianBlur stdDeviation="0.976924"/>
<feComposite in2="hardAlpha" operator="arithmetic" k2="-1" k3="1"/>
<feColorMatrix type="matrix" values="0 0 0 0 0 0 0 0 0 0 0 0 0 0 0 0 0 0 0.35 0"/>
<feBlend mode="normal" in2="shape" result="effect1_innerShadow_1302_8251"/>
</filter>
<linearGradient id="paint0_linear_1302_8251" x1="100.098" y1="54" x2="122.027" y2="72.5562" gradientUnits="userSpaceOnUse">
<stop stop-color="#EF3823"/>
<stop offset="0.489583" stop-color="#F04D22"/>
<stop offset="1" stop-color="#F7911D"/>
</linearGradient>
</defs>
</svg>
