<svg width="208" height="134" viewBox="0 0 208 134" fill="none" xmlns="http://www.w3.org/2000/svg">
<rect width="208" height="134" rx="24" fill="#000008"/>
<path d="M118.941 40.483H88.3164V95.517H118.941V40.483Z" fill="#FF5F00"/>
<path d="M90.2611 68C90.2562 62.6998 91.4573 57.468 93.7733 52.7006C96.0893 47.9333 99.4596 43.7553 103.629 40.483C98.4658 36.4246 92.2649 33.9007 85.7351 33.1999C79.2053 32.499 72.6101 33.6495 66.7032 36.5197C60.7963 39.39 55.8161 43.8642 52.3319 49.4311C48.8477 54.9979 47 61.4327 47 68C47 74.5673 48.8477 81.0021 52.3319 86.5689C55.8161 92.1358 60.7963 96.61 66.7032 99.4803C72.6101 102.351 79.2053 103.501 85.7351 102.8C92.2649 102.099 98.4658 99.5754 103.629 95.517C99.4596 92.2447 96.0894 88.0667 93.7733 83.2993C91.4573 78.532 90.2563 73.3002 90.2611 68Z" fill="#EB001B"/>
<path d="M160.256 68C160.256 74.5672 158.409 81.002 154.925 86.5688C151.441 92.1357 146.461 96.6099 140.554 99.4802C134.647 102.35 128.052 103.501 121.523 102.8C114.993 102.099 108.792 99.5754 103.629 95.517C107.795 92.2414 111.162 88.0627 113.478 83.2961C115.794 78.5295 116.997 73.2993 116.997 68C116.997 62.7007 115.794 57.4705 113.478 52.7039C111.162 47.9373 107.795 43.7586 103.629 40.483C108.792 36.4246 114.993 33.9007 121.523 33.1999C128.052 32.499 134.647 33.6495 140.554 36.5198C146.461 39.3901 151.441 43.8643 154.925 49.4312C158.409 54.998 160.256 61.4328 160.256 68Z" fill="#F79E1B"/>
<path d="M156.917 89.6881V88.5613H157.371V88.3318H156.214V88.5613H156.669V89.6881H156.917ZM159.163 89.6881V88.3296H158.809L158.401 89.264L157.993 88.3296H157.638V89.6881H157.888V88.6633L158.271 89.5468H158.531L158.913 88.6611V89.6881H159.163Z" fill="#F79E1B"/>
</svg>
