<svg width="208" height="134" viewBox="0 0 208 134" fill="none" xmlns="http://www.w3.org/2000/svg">
<rect width="208" height="134" rx="24" fill="#1434CB"/>
<path d="M102.728 45.1627L93.0265 90.514H81.2951L90.9983 45.1627H102.728ZM152.087 74.4462L158.264 57.4152L161.818 74.4462H152.087ZM165.177 90.514H176.028L166.559 45.1627H156.543C154.292 45.1627 152.393 46.4717 151.548 48.4899L133.947 90.514H146.267L148.713 83.7418H163.764L165.177 90.514ZM134.558 75.7064C134.608 63.7367 118.005 63.0778 118.12 57.731C118.155 56.1018 119.706 54.3736 123.095 53.9301C124.779 53.7104 129.408 53.5425 134.664 55.9611L136.723 46.344C133.899 45.3191 130.266 44.333 125.748 44.333C114.153 44.333 105.991 50.498 105.922 59.3257C105.849 65.8539 111.748 69.4969 116.194 71.6672C120.764 73.8907 122.3 75.3146 122.28 77.3026C122.25 80.3471 118.634 81.6877 115.261 81.7408C109.361 81.8341 105.938 80.149 103.209 78.8772L101.083 88.8145C103.824 90.0733 108.883 91.1671 114.133 91.223C126.455 91.223 134.518 85.1341 134.558 75.7064ZM85.9644 45.1627L66.9569 90.514H54.5537L45.2007 54.3205C44.6323 52.0913 44.1385 51.276 42.4117 50.3358C39.594 48.8071 34.9362 47.3703 30.8381 46.4804L31.118 45.1627H51.08C53.6236 45.1627 55.913 46.8564 56.49 49.7861L61.4307 76.0308L73.6387 45.1627H85.9644Z" fill="white"/>
</svg>
