<svg width="12" height="12" viewBox="0 0 12 12" fill="none" xmlns="http://www.w3.org/2000/svg">
<path d="M6 11C8.76142 11 11 8.76142 11 6C11 3.23858 8.76142 1 6 1C3.23858 1 1 3.23858 1 6L-2.62268e-07 6C-1.17422e-07 2.68629 2.68629 -4.07115e-07 6 -2.62268e-07C9.31371 -1.17422e-07 12 2.68629 12 6C12 9.31371 9.31371 12 6 12C2.68629 12 -4.07115e-07 9.31371 -2.62268e-07 6L1 6C1 8.76142 3.23858 11 6 11Z" fill="#CCCCCC"/>
<path d="M3.87868 8.82841L3.17158 8.1213L8.12132 3.17156L8.82843 3.87866L3.87868 8.82841Z" fill="#CCCCCC"/>
<path d="M3.17158 3.87868L3.87868 3.17158L8.82843 8.12132L8.12132 8.82843L3.17158 3.87868Z" fill="#CCCCCC"/>
</svg>
